<svg xmlns="http://www.w3.org/2000/svg" width="61" height="61" viewBox="0 0 61 61"><defs><style>.a,.f{fill:none;}.a{stroke:#cfb405;stroke-width:3px;}.b{opacity:0.74;}.c{fill:#fff;}.d{fill:#cfb405;}.e{stroke:none;}</style></defs><g transform="translate(-463 -680)"><g class="a" transform="translate(463 680)"><circle class="e" cx="30.5" cy="30.5" r="30.5"/><circle class="f" cx="30.5" cy="30.5" r="29"/></g><g class="b" transform="translate(0 3)"><circle class="c" cx="23" cy="23" r="23" transform="translate(471 685)"/><path class="d" d="M33.875,3.375a30.5,30.5,0,1,0,30.5,30.5A30.5,30.5,0,0,0,33.875,3.375ZM46.163,34.447,26.045,46.618a.652.652,0,0,1-.982-.572V21.7a.65.65,0,0,1,.982-.572L46.163,33.3A.672.672,0,0,1,46.163,34.447Z" transform="translate(459.625 673.625)"/></g></g></svg>